<svg width="398" height="73" viewBox="0 0 398 73" fill="none" xmlns="http://www.w3.org/2000/svg">
<path d="M0.00078126 -0.00078249H55.0008V13.7992H36.4008V71.1992H18.6008V13.7992H0.00078126V-0.00078249ZM80.3008 28.5992C78.1008 28.5992 76.2008 28.9992 74.6008 29.7992C73.0008 30.5992 71.6674 31.7326 70.6008 33.1992C69.6008 34.5992 68.8341 36.2992 68.3008 38.2992C67.8341 40.2326 67.6008 42.3326 67.6008 44.5992C67.6008 46.8659 67.8341 48.9992 68.3008 50.9992C68.8341 52.9326 69.6008 54.6326 70.6008 56.0992C71.6674 57.4992 73.0008 58.5992 74.6008 59.3992C76.2008 60.1992 78.1008 60.5992 80.3008 60.5992C82.5008 60.5992 84.4008 60.1992 86.0008 59.3992C87.6008 58.5326 88.9008 57.3659 89.9008 55.8992C90.9674 54.4326 91.7341 52.6992 92.2008 50.6992C92.7341 48.6326 93.0008 46.3992 93.0008 43.9992C93.0008 41.8659 92.7341 39.8659 92.2008 37.9992C91.7341 36.1326 90.9674 34.4992 89.9008 33.0992C88.9008 31.6992 87.6008 30.5992 86.0008 29.7992C84.4008 28.9992 82.5008 28.5992 80.3008 28.5992ZM80.3008 16.5992C84.4341 16.5992 88.2341 17.2326 91.7008 18.4992C95.1675 19.6992 98.1341 21.4992 100.601 23.8992C103.134 26.2992 105.101 29.2326 106.501 32.6992C107.901 36.1659 108.601 40.1326 108.601 44.5992C108.601 49.0659 107.901 53.0326 106.501 56.4992C105.101 59.9659 103.134 62.8992 100.601 65.2992C98.1341 67.6992 95.1675 69.5326 91.7008 70.7992C88.2341 71.9992 84.4341 72.5992 80.3008 72.5992C76.1675 72.5992 72.3674 71.9992 68.9008 70.7992C65.4341 69.5326 62.4341 67.6992 59.9008 65.2992C57.4341 62.8992 55.5008 59.9659 54.1008 56.4992C52.7008 53.0326 52.0008 49.0659 52.0008 44.5992C52.0008 40.1326 52.7008 36.1659 54.1008 32.6992C55.5008 29.2326 57.4341 26.2992 59.9008 23.8992C62.4341 21.4992 65.4341 19.6992 68.9008 18.4992C72.3674 17.2326 76.1675 16.5992 80.3008 16.5992ZM165.889 71.1992H150.289V66.4992C149.289 67.6992 148.156 68.6992 146.889 69.4992C145.622 70.2326 144.289 70.8326 142.889 71.2992C141.489 71.7659 140.089 72.0992 138.689 72.2992C137.356 72.4992 136.089 72.5992 134.889 72.5992C131.756 72.5992 129.156 72.1659 127.089 71.2992C125.022 70.4992 123.356 69.3992 122.089 67.9992C120.889 66.5326 120.022 64.8992 119.489 63.0992C119.022 61.2326 118.789 59.2992 118.789 57.2992V17.9992H134.389V52.7992C134.389 55.1326 134.889 56.9326 135.889 58.1992C136.956 59.3992 138.989 59.9992 141.989 59.9992C144.256 59.9992 146.189 59.3659 147.789 58.0992C149.456 56.7659 150.289 54.6326 150.289 51.6992V17.9992H165.889V71.1992ZM179.922 17.9992H195.522V23.3992C197.255 21.7992 199.422 20.5325 202.022 19.5992C204.622 18.5992 207.322 17.9992 210.122 17.7992L210.222 31.5992L208.522 31.7992C203.855 32.3326 200.522 33.1659 198.522 34.2992C196.522 35.4325 195.522 37.4659 195.522 40.3992V71.1992H179.922V17.9992ZM213.689 56.7992H221.089C222.556 56.7992 223.722 56.6326 224.589 56.2992C225.522 55.9659 226.222 55.4992 226.689 54.8992C227.156 54.2992 227.456 53.5659 227.589 52.6992C227.722 51.7659 227.789 50.7326 227.789 49.5992V-0.00078249H245.589V55.3992C245.589 58.2659 245.189 60.6992 244.389 62.6992C243.589 64.6992 242.422 66.3326 240.889 67.5992C239.422 68.8659 237.622 69.7992 235.489 70.3992C233.422 70.9326 231.122 71.1992 228.589 71.1992H213.689V56.7992ZM289.412 45.2992L278.912 48.2992C276.978 48.8326 275.245 49.5992 273.712 50.5992C272.178 51.5326 271.412 53.0659 271.412 55.1992C271.412 57.3326 272.145 58.8659 273.612 59.7992C275.078 60.7326 276.778 61.1992 278.712 61.1992C281.778 61.1992 284.312 60.1992 286.312 58.1992C288.378 56.1326 289.412 53.0659 289.412 48.9992V45.2992ZM304.412 60.0992C304.412 61.9659 304.478 63.8659 304.612 65.7992C304.745 67.7326 305.145 69.5326 305.812 71.1992H291.412C291.078 70.2659 290.845 69.3659 290.712 68.4992C290.578 67.5659 290.478 66.6326 290.412 65.6992H290.212C289.545 66.7659 288.612 67.7326 287.412 68.5992C286.212 69.3992 284.845 70.0992 283.312 70.6992C281.845 71.2992 280.312 71.7659 278.712 72.0992C277.112 72.4326 275.612 72.5992 274.212 72.5992C271.678 72.5992 269.312 72.2326 267.112 71.4992C264.978 70.8326 263.112 69.8326 261.512 68.4992C259.912 67.1659 258.645 65.5326 257.712 63.5992C256.845 61.5992 256.412 59.3326 256.412 56.7992C256.412 53.5992 257.012 50.8992 258.212 48.6992C259.478 46.4326 261.278 44.5659 263.612 43.0992C266.012 41.5659 268.878 40.3326 272.212 39.3992C275.612 38.4659 279.445 37.6992 283.712 37.0992L289.412 36.2992V31.8992C289.412 29.8992 288.712 28.4659 287.312 27.5992C285.912 26.6659 284.145 26.1992 282.012 26.1992C279.478 26.1992 277.578 26.7326 276.312 27.7992C275.045 28.7992 274.212 30.6325 273.812 33.2992H258.812C258.945 29.4992 259.812 26.4992 261.412 24.2992C263.078 22.0326 265.012 20.3325 267.212 19.1992C269.478 18.0659 271.845 17.3659 274.312 17.0992C276.778 16.7659 278.912 16.5992 280.712 16.5992C284.312 16.5992 287.578 16.8326 290.512 17.2992C293.445 17.7659 295.912 18.5992 297.912 19.7992C299.978 20.9992 301.578 22.5992 302.712 24.5992C303.845 26.5326 304.412 28.9992 304.412 31.9992V60.0992ZM318.789 17.9992H334.389V22.6992C335.389 21.4992 336.522 20.5326 337.789 19.7992C339.056 18.9992 340.389 18.3659 341.789 17.8992C343.189 17.4325 344.556 17.0992 345.889 16.8992C347.289 16.6992 348.589 16.5992 349.789 16.5992C352.856 16.5992 355.522 17.1992 357.789 18.3992C360.122 19.5992 362.156 21.3659 363.889 23.6992C366.422 21.0992 369.122 19.2659 371.989 18.1992C374.856 17.1326 377.856 16.5992 380.989 16.5992C382.256 16.5992 383.822 16.7659 385.689 17.0992C387.622 17.3659 389.422 17.9992 391.089 18.9992C392.822 19.9992 394.289 21.4325 395.489 23.2992C396.756 25.0992 397.389 27.5326 397.389 30.5992V71.1992H381.789V40.0992C381.789 36.2992 381.189 33.5325 379.989 31.7992C378.856 30.0659 376.789 29.1992 373.789 29.1992C371.189 29.1992 369.222 30.0659 367.889 31.7992C366.556 33.5325 365.889 35.7659 365.889 38.4992V71.1992H350.289V37.8992C350.289 35.2992 349.756 33.1992 348.689 31.5992C347.689 29.9992 345.689 29.1992 342.689 29.1992C339.556 29.1992 337.389 30.0992 336.189 31.8992C334.989 33.6326 334.389 35.6992 334.389 38.0992V71.1992H318.789V17.9992Z" fill="#6C12F2"/>
</svg>
