<svg width="437" height="68" viewBox="0 0 437 68" fill="none" xmlns="http://www.w3.org/2000/svg">
<g filter="url(#filter0_d_35_200)">
<path d="M78.7218 3.10027V46.7437C78.7218 47.7901 77.3084 48.6413 75.5708 48.6413C73.8332 48.6413 72.4201 47.7901 72.4201 46.7437V16.383C72.4201 9.05884 62.5258 3.1001 50.3637 3.1001C38.2015 3.1001 28.3072 9.05884 28.3072 16.383V46.7437C28.3072 47.7901 26.8938 48.6413 25.1562 48.6413C23.4187 48.6413 22.0055 47.7901 22.0055 46.7437V3.10027H3.1001V46.7437C3.1001 54.068 12.9947 60.0266 25.1565 60.0266C37.3184 60.0266 47.2129 54.068 47.2129 46.7437V16.383C47.2129 15.3367 48.6264 14.4855 50.3637 14.4855C52.1009 14.4855 53.5147 15.3367 53.5147 16.383V46.7437C53.5147 54.068 63.409 60.0266 75.5711 60.0266C87.7332 60.0266 97.6275 54.068 97.6275 46.7437V3.10027H78.7218Z" fill="white"/>
</g>
<path d="M128.587 3.47579H172.587V14.5158H157.707V60.4358H143.467V14.5158H128.587V3.47579ZM191.227 26.3558C189.467 26.3558 187.947 26.6758 186.667 27.3158C185.387 27.9558 184.321 28.8625 183.467 30.0358C182.667 31.1558 182.054 32.5158 181.627 34.1158C181.254 35.6625 181.067 37.3425 181.067 39.1558C181.067 40.9691 181.254 42.6758 181.627 44.2758C182.054 45.8225 182.667 47.1825 183.467 48.3558C184.321 49.4758 185.387 50.3558 186.667 50.9958C187.947 51.6358 189.467 51.9558 191.227 51.9558C192.987 51.9558 194.507 51.6358 195.787 50.9958C197.067 50.3025 198.107 49.3691 198.907 48.1958C199.761 47.0225 200.374 45.6358 200.747 44.0358C201.174 42.3825 201.387 40.5958 201.387 38.6758C201.387 36.9691 201.174 35.3691 200.747 33.8758C200.374 32.3825 199.761 31.0758 198.907 29.9558C198.107 28.8358 197.067 27.9558 195.787 27.3158C194.507 26.6758 192.987 26.3558 191.227 26.3558ZM191.227 16.7558C194.534 16.7558 197.574 17.2625 200.347 18.2758C203.121 19.2358 205.494 20.6758 207.467 22.5958C209.494 24.5158 211.067 26.8625 212.187 29.6358C213.307 32.4091 213.867 35.5825 213.867 39.1558C213.867 42.7291 213.307 45.9025 212.187 48.6758C211.067 51.4491 209.494 53.7958 207.467 55.7158C205.494 57.6358 203.121 59.1025 200.347 60.1158C197.574 61.0758 194.534 61.5558 191.227 61.5558C187.921 61.5558 184.881 61.0758 182.107 60.1158C179.334 59.1025 176.934 57.6358 174.907 55.7158C172.934 53.7958 171.387 51.4491 170.267 48.6758C169.147 45.9025 168.587 42.7291 168.587 39.1558C168.587 35.5825 169.147 32.4091 170.267 29.6358C171.387 26.8625 172.934 24.5158 174.907 22.5958C176.934 20.6758 179.334 19.2358 182.107 18.2758C184.881 17.2625 187.921 16.7558 191.227 16.7558ZM258.098 60.4358H245.618V56.6758C244.818 57.6358 243.911 58.4358 242.898 59.0758C241.885 59.6625 240.818 60.1425 239.698 60.5158C238.578 60.8891 237.458 61.1558 236.338 61.3158C235.271 61.4758 234.258 61.5558 233.298 61.5558C230.791 61.5558 228.711 61.2091 227.058 60.5158C225.405 59.8758 224.071 58.9958 223.058 57.8758C222.098 56.7025 221.405 55.3958 220.978 53.9558C220.605 52.4625 220.418 50.9158 220.418 49.3158V17.8758H232.898V45.7158C232.898 47.5825 233.298 49.0225 234.098 50.0358C234.951 50.9958 236.578 51.4758 238.978 51.4758C240.791 51.4758 242.338 50.9691 243.618 49.9558C244.951 48.8891 245.618 47.1825 245.618 44.8358V17.8758H258.098V60.4358ZM267.724 17.8758H280.204V22.1958C281.591 20.9158 283.324 19.9025 285.404 19.1558C287.484 18.3558 289.644 17.8758 291.884 17.7158L291.964 28.7558L290.604 28.9158C286.871 29.3425 284.204 30.0091 282.604 30.9158C281.004 31.8225 280.204 33.4491 280.204 35.7958V60.4358H267.724V17.8758ZM293.138 48.9158H299.058C300.231 48.9158 301.165 48.7825 301.858 48.5158C302.605 48.2491 303.165 47.8758 303.538 47.3958C303.911 46.9158 304.151 46.3291 304.258 45.6358C304.365 44.8891 304.418 44.0625 304.418 43.1558V3.47579H318.658V47.7958C318.658 50.0891 318.338 52.0358 317.698 53.6358C317.058 55.2358 316.125 56.5425 314.898 57.5558C313.725 58.5691 312.285 59.3158 310.578 59.7958C308.925 60.2225 307.085 60.4358 305.058 60.4358H293.138V48.9158ZM352.116 39.7158L343.716 42.1158C342.17 42.5425 340.783 43.1558 339.556 43.9558C338.33 44.7025 337.716 45.9291 337.716 47.6358C337.716 49.3425 338.303 50.5691 339.476 51.3158C340.65 52.0625 342.01 52.4358 343.556 52.4358C346.01 52.4358 348.036 51.6358 349.636 50.0358C351.29 48.3825 352.116 45.9291 352.116 42.6758V39.7158ZM364.116 51.5558C364.116 53.0491 364.17 54.5691 364.276 56.1158C364.383 57.6625 364.703 59.1025 365.236 60.4358H353.716C353.45 59.6891 353.263 58.9691 353.156 58.2758C353.05 57.5291 352.97 56.7825 352.916 56.0358H352.756C352.223 56.8891 351.476 57.6625 350.516 58.3558C349.556 58.9958 348.463 59.5558 347.236 60.0358C346.063 60.5158 344.836 60.8891 343.556 61.1558C342.276 61.4225 341.076 61.5558 339.956 61.5558C337.93 61.5558 336.036 61.2625 334.276 60.6758C332.57 60.1425 331.076 59.3425 329.796 58.2758C328.516 57.2091 327.503 55.9025 326.756 54.3558C326.063 52.7558 325.716 50.9425 325.716 48.9158C325.716 46.3558 326.196 44.1958 327.156 42.4358C328.17 40.6225 329.61 39.1291 331.476 37.9558C333.396 36.7291 335.69 35.7425 338.356 34.9958C341.076 34.2491 344.143 33.6358 347.556 33.1558L352.116 32.5158V28.9958C352.116 27.3958 351.556 26.2491 350.436 25.5558C349.316 24.8091 347.903 24.4358 346.196 24.4358C344.17 24.4358 342.65 24.8625 341.636 25.7158C340.623 26.5158 339.956 27.9825 339.636 30.1158H327.636C327.743 27.0758 328.436 24.6758 329.716 22.9158C331.05 21.1025 332.596 19.7425 334.356 18.8358C336.17 17.9291 338.063 17.3691 340.036 17.1558C342.01 16.8891 343.716 16.7558 345.156 16.7558C348.036 16.7558 350.65 16.9425 352.996 17.3158C355.343 17.6891 357.316 18.3558 358.916 19.3158C360.57 20.2758 361.85 21.5558 362.756 23.1558C363.663 24.7025 364.116 26.6758 364.116 29.0758V51.5558ZM374.018 17.8758H386.498V21.6358C387.298 20.6758 388.205 19.9025 389.218 19.3158C390.231 18.6758 391.298 18.1691 392.418 17.7958C393.538 17.4225 394.631 17.1558 395.698 16.9958C396.818 16.8358 397.858 16.7558 398.818 16.7558C401.271 16.7558 403.405 17.2358 405.218 18.1958C407.085 19.1558 408.711 20.5691 410.098 22.4358C412.125 20.3558 414.285 18.8891 416.578 18.0358C418.871 17.1825 421.271 16.7558 423.778 16.7558C424.791 16.7558 426.045 16.8891 427.538 17.1558C429.085 17.3691 430.525 17.8758 431.858 18.6758C433.245 19.4758 434.418 20.6225 435.378 22.1158C436.391 23.5558 436.898 25.5025 436.898 27.9558V60.4358H424.418V35.5558C424.418 32.5158 423.938 30.3025 422.978 28.9158C422.071 27.5291 420.418 26.8358 418.018 26.8358C415.938 26.8358 414.365 27.5291 413.298 28.9158C412.231 30.3025 411.698 32.0891 411.698 34.2758V60.4358H399.218V33.7958C399.218 31.7158 398.791 30.0358 397.938 28.7558C397.138 27.4758 395.538 26.8358 393.138 26.8358C390.631 26.8358 388.898 27.5558 387.938 28.9958C386.978 30.3825 386.498 32.0358 386.498 33.9558V60.4358H374.018V17.8758Z" fill="white"/>
<defs>
<filter id="filter0_d_35_200" x="9.77516e-05" y="9.77516e-05" width="104.727" height="67.1265" filterUnits="userSpaceOnUse" color-interpolation-filters="sRGB">
<feFlood flood-opacity="0" result="BackgroundImageFix"/>
<feColorMatrix in="SourceAlpha" type="matrix" values="0 0 0 0 0 0 0 0 0 0 0 0 0 0 0 0 0 0 127 0" result="hardAlpha"/>
<feOffset dx="2" dy="2"/>
<feGaussianBlur stdDeviation="2.55"/>
<feComposite in2="hardAlpha" operator="out"/>
<feColorMatrix type="matrix" values="0 0 0 0 0 0 0 0 0 0 0 0 0 0 0 0 0 0 0.25 0"/>
<feBlend mode="normal" in2="BackgroundImageFix" result="effect1_dropShadow_35_200"/>
<feBlend mode="normal" in="BackgroundImageFix" in2="effect1_dropShadow_35_200" result="BackgroundImageFix"/>
<feBlend mode="normal" in="SourceGraphic" in2="BackgroundImageFix" result="shape"/>
</filter>
</defs>
</svg>
