<svg width="433" height="81" viewBox="0 0 433 81" fill="none" xmlns="http://www.w3.org/2000/svg">
<g filter="url(#filter0_d_35_200)">
<path d="M66.9775 3.10027V49.0407C66.9775 50.1422 65.7836 51.0382 64.3159 51.0382C62.8481 51.0382 61.6545 50.1422 61.6545 49.0407V17.0821C61.6545 9.37245 53.2968 3.1001 43.0235 3.1001C32.7502 3.1001 24.3925 9.37245 24.3925 17.0821V49.0407C24.3925 50.1422 23.1986 51.0382 21.7308 51.0382C20.2631 51.0382 19.0694 50.1422 19.0694 49.0407V3.10027H3.1001V49.0407C3.1001 56.7505 11.458 63.0227 21.7311 63.0227C32.0041 63.0227 40.3621 56.7505 40.3621 49.0407V17.0821C40.3621 15.9808 41.556 15.0848 43.0235 15.0848C44.4909 15.0848 45.6851 15.9808 45.6851 17.0821V49.0407C45.6851 56.7505 54.0428 63.0227 64.3161 63.0227C74.5894 63.0227 82.9471 56.7505 82.9471 49.0407V3.10027H66.9775Z" fill="white" fill-opacity="0.95"/>
</g>
<path d="M118.06 6.4023H162.06V17.4423H147.18V63.3623H132.94V17.4423H118.06V6.4023ZM180.7 29.2823C178.94 29.2823 177.42 29.6023 176.14 30.2423C174.86 30.8823 173.793 31.789 172.94 32.9623C172.14 34.0823 171.527 35.4423 171.1 37.0423C170.727 38.589 170.54 40.269 170.54 42.0823C170.54 43.8956 170.727 45.6023 171.1 47.2023C171.527 48.749 172.14 50.109 172.94 51.2823C173.793 52.4023 174.86 53.2823 176.14 53.9223C177.42 54.5623 178.94 54.8823 180.7 54.8823C182.46 54.8823 183.98 54.5623 185.26 53.9223C186.54 53.229 187.58 52.2956 188.38 51.1223C189.233 49.949 189.847 48.5623 190.22 46.9623C190.647 45.309 190.86 43.5223 190.86 41.6023C190.86 39.8956 190.647 38.2956 190.22 36.8023C189.847 35.309 189.233 34.0023 188.38 32.8823C187.58 31.7623 186.54 30.8823 185.26 30.2423C183.98 29.6023 182.46 29.2823 180.7 29.2823ZM180.7 19.6823C184.007 19.6823 187.047 20.189 189.82 21.2023C192.593 22.1623 194.967 23.6023 196.94 25.5223C198.967 27.4423 200.54 29.789 201.66 32.5623C202.78 35.3356 203.34 38.509 203.34 42.0823C203.34 45.6556 202.78 48.829 201.66 51.6023C200.54 54.3756 198.967 56.7223 196.94 58.6423C194.967 60.5623 192.593 62.029 189.82 63.0423C187.047 64.0023 184.007 64.4823 180.7 64.4823C177.393 64.4823 174.353 64.0023 171.58 63.0423C168.807 62.029 166.407 60.5623 164.38 58.6423C162.407 56.7223 160.86 54.3756 159.74 51.6023C158.62 48.829 158.06 45.6556 158.06 42.0823C158.06 38.509 158.62 35.3356 159.74 32.5623C160.86 29.789 162.407 27.4423 164.38 25.5223C166.407 23.6023 168.807 22.1623 171.58 21.2023C174.353 20.189 177.393 19.6823 180.7 19.6823ZM247.571 63.3623H235.091V59.6023C234.291 60.5623 233.384 61.3623 232.371 62.0023C231.357 62.589 230.291 63.069 229.171 63.4423C228.051 63.8156 226.931 64.0823 225.811 64.2423C224.744 64.4023 223.731 64.4823 222.771 64.4823C220.264 64.4823 218.184 64.1356 216.531 63.4423C214.877 62.8023 213.544 61.9223 212.531 60.8023C211.571 59.629 210.877 58.3223 210.451 56.8823C210.077 55.389 209.891 53.8423 209.891 52.2423V20.8023H222.371V48.6423C222.371 50.509 222.771 51.949 223.571 52.9623C224.424 53.9223 226.051 54.4023 228.451 54.4023C230.264 54.4023 231.811 53.8956 233.091 52.8823C234.424 51.8156 235.091 50.109 235.091 47.7623V20.8023H247.571V63.3623ZM257.197 20.8023H269.677V25.1223C271.064 23.8423 272.797 22.829 274.877 22.0823C276.957 21.2823 279.117 20.8023 281.357 20.6423L281.437 31.6823L280.077 31.8423C276.344 32.269 273.677 32.9356 272.077 33.8423C270.477 34.749 269.677 36.3756 269.677 38.7223V63.3623H257.197V20.8023ZM282.611 51.8423H288.531C289.704 51.8423 290.637 51.709 291.331 51.4423C292.077 51.1756 292.637 50.8023 293.011 50.3223C293.384 49.8423 293.624 49.2556 293.731 48.5623C293.837 47.8156 293.891 46.989 293.891 46.0823V6.4023H308.131V50.7223C308.131 53.0156 307.811 54.9623 307.171 56.5623C306.531 58.1623 305.597 59.469 304.371 60.4823C303.197 61.4956 301.757 62.2423 300.051 62.7223C298.397 63.149 296.557 63.3623 294.531 63.3623H282.611V51.8423ZM341.589 42.6423L333.189 45.0423C331.642 45.469 330.256 46.0823 329.029 46.8823C327.802 47.629 327.189 48.8556 327.189 50.5623C327.189 52.269 327.776 53.4956 328.949 54.2423C330.122 54.989 331.482 55.3623 333.029 55.3623C335.482 55.3623 337.509 54.5623 339.109 52.9623C340.762 51.309 341.589 48.8556 341.589 45.6023V42.6423ZM353.589 54.4823C353.589 55.9756 353.642 57.4956 353.749 59.0423C353.856 60.589 354.176 62.029 354.709 63.3623H343.189C342.922 62.6156 342.736 61.8956 342.629 61.2023C342.522 60.4556 342.442 59.709 342.389 58.9623H342.229C341.696 59.8156 340.949 60.589 339.989 61.2823C339.029 61.9223 337.936 62.4823 336.709 62.9623C335.536 63.4423 334.309 63.8156 333.029 64.0823C331.749 64.349 330.549 64.4823 329.429 64.4823C327.402 64.4823 325.509 64.189 323.749 63.6023C322.042 63.069 320.549 62.269 319.269 61.2023C317.989 60.1356 316.976 58.829 316.229 57.2823C315.536 55.6823 315.189 53.869 315.189 51.8423C315.189 49.2823 315.669 47.1223 316.629 45.3623C317.642 43.549 319.082 42.0556 320.949 40.8823C322.869 39.6556 325.162 38.669 327.829 37.9223C330.549 37.1756 333.616 36.5623 337.029 36.0823L341.589 35.4423V31.9223C341.589 30.3223 341.029 29.1756 339.909 28.4823C338.789 27.7356 337.376 27.3623 335.669 27.3623C333.642 27.3623 332.122 27.789 331.109 28.6423C330.096 29.4423 329.429 30.909 329.109 33.0423H317.109C317.216 30.0023 317.909 27.6023 319.189 25.8423C320.522 24.029 322.069 22.669 323.829 21.7623C325.642 20.8556 327.536 20.2956 329.509 20.0823C331.482 19.8156 333.189 19.6823 334.629 19.6823C337.509 19.6823 340.122 19.869 342.469 20.2423C344.816 20.6156 346.789 21.2823 348.389 22.2423C350.042 23.2023 351.322 24.4823 352.229 26.0823C353.136 27.629 353.589 29.6023 353.589 32.0023V54.4823ZM363.491 20.8023H375.971V24.5623C376.771 23.6023 377.677 22.829 378.691 22.2423C379.704 21.6023 380.771 21.0956 381.891 20.7223C383.011 20.349 384.104 20.0823 385.171 19.9223C386.291 19.7623 387.331 19.6823 388.291 19.6823C390.744 19.6823 392.877 20.1623 394.691 21.1223C396.557 22.0823 398.184 23.4956 399.571 25.3623C401.597 23.2823 403.757 21.8156 406.051 20.9623C408.344 20.109 410.744 19.6823 413.251 19.6823C414.264 19.6823 415.517 19.8156 417.011 20.0823C418.557 20.2956 419.997 20.8023 421.331 21.6023C422.717 22.4023 423.891 23.549 424.851 25.0423C425.864 26.4823 426.371 28.429 426.371 30.8823V63.3623H413.891V38.4823C413.891 35.4423 413.411 33.229 412.451 31.8423C411.544 30.4556 409.891 29.7623 407.491 29.7623C405.411 29.7623 403.837 30.4556 402.771 31.8423C401.704 33.229 401.171 35.0156 401.171 37.2023V63.3623H388.691V36.7223C388.691 34.6423 388.264 32.9623 387.411 31.6823C386.611 30.4023 385.011 29.7623 382.611 29.7623C380.104 29.7623 378.371 30.4823 377.411 31.9223C376.451 33.309 375.971 34.9623 375.971 36.8823V63.3623H363.491V20.8023Z" fill="white"/>
<defs>
<filter id="filter0_d_35_200" x="9.77516e-05" y="9.77516e-05" width="90.0469" height="70.1226" filterUnits="userSpaceOnUse" color-interpolation-filters="sRGB">
<feFlood flood-opacity="0" result="BackgroundImageFix"/>
<feColorMatrix in="SourceAlpha" type="matrix" values="0 0 0 0 0 0 0 0 0 0 0 0 0 0 0 0 0 0 127 0" result="hardAlpha"/>
<feOffset dx="2" dy="2"/>
<feGaussianBlur stdDeviation="2.55"/>
<feComposite in2="hardAlpha" operator="out"/>
<feColorMatrix type="matrix" values="0 0 0 0 0 0 0 0 0 0 0 0 0 0 0 0 0 0 0.25 0"/>
<feBlend mode="normal" in2="BackgroundImageFix" result="effect1_dropShadow_35_200"/>
<feBlend mode="normal" in="BackgroundImageFix" in2="effect1_dropShadow_35_200" result="BackgroundImageFix"/>
<feBlend mode="normal" in="SourceGraphic" in2="BackgroundImageFix" result="shape"/>
</filter>
</defs>
</svg>
