<svg width="547" height="88" viewBox="0 0 547 88" fill="none" xmlns="http://www.w3.org/2000/svg">
<g filter="url(#filter0_d_200_196)">
<path d="M140.2 3.8H195.2V17.6H176.6V75H158.8V17.6H140.2V3.8ZM220.5 32.4C218.3 32.4 216.4 32.8 214.8 33.6C213.2 34.4 211.867 35.5333 210.8 37C209.8 38.4 209.033 40.1 208.5 42.1C208.033 44.0333 207.8 46.1333 207.8 48.4C207.8 50.6667 208.033 52.8 208.5 54.8C209.033 56.7333 209.8 58.4333 210.8 59.9C211.867 61.3 213.2 62.4 214.8 63.2C216.4 64 218.3 64.4 220.5 64.4C222.7 64.4 224.6 64 226.2 63.2C227.8 62.3333 229.1 61.1667 230.1 59.7C231.167 58.2333 231.933 56.5 232.4 54.5C232.933 52.4333 233.2 50.2 233.2 47.8C233.2 45.6667 232.933 43.6667 232.4 41.8C231.933 39.9333 231.167 38.3 230.1 36.9C229.1 35.5 227.8 34.4 226.2 33.6C224.6 32.8 222.7 32.4 220.5 32.4ZM220.5 20.4C224.633 20.4 228.433 21.0333 231.9 22.3C235.367 23.5 238.333 25.3 240.8 27.7C243.333 30.1 245.3 33.0333 246.7 36.5C248.1 39.9667 248.8 43.9333 248.8 48.4C248.8 52.8667 248.1 56.8333 246.7 60.3C245.3 63.7667 243.333 66.7 240.8 69.1C238.333 71.5 235.367 73.3333 231.9 74.6C228.433 75.8 224.633 76.4 220.5 76.4C216.367 76.4 212.567 75.8 209.1 74.6C205.633 73.3333 202.633 71.5 200.1 69.1C197.633 66.7 195.7 63.7667 194.3 60.3C192.9 56.8333 192.2 52.8667 192.2 48.4C192.2 43.9333 192.9 39.9667 194.3 36.5C195.7 33.0333 197.633 30.1 200.1 27.7C202.633 25.3 205.633 23.5 209.1 22.3C212.567 21.0333 216.367 20.4 220.5 20.4ZM306.088 75H290.488V70.3C289.488 71.5 288.355 72.5 287.088 73.3C285.822 74.0333 284.488 74.6333 283.088 75.1C281.688 75.5667 280.288 75.9 278.888 76.1C277.555 76.3 276.288 76.4 275.088 76.4C271.955 76.4 269.355 75.9667 267.288 75.1C265.222 74.3 263.555 73.2 262.288 71.8C261.088 70.3333 260.222 68.7 259.688 66.9C259.222 65.0333 258.988 63.1 258.988 61.1V21.8H274.588V56.6C274.588 58.9333 275.088 60.7333 276.088 62C277.155 63.2 279.188 63.8 282.188 63.8C284.455 63.8 286.388 63.1667 287.988 61.9C289.655 60.5667 290.488 58.4333 290.488 55.5V21.8H306.088V75ZM320.121 21.8H335.721V27.2C337.454 25.6 339.621 24.3333 342.221 23.4C344.821 22.4 347.521 21.8 350.321 21.6L350.421 35.4L348.721 35.6C344.054 36.1333 340.721 36.9667 338.721 38.1C336.721 39.2333 335.721 41.2667 335.721 44.2V75H320.121V21.8ZM353.888 60.6H361.288C362.755 60.6 363.922 60.4333 364.788 60.1C365.722 59.7667 366.422 59.3 366.888 58.7C367.355 58.1 367.655 57.3667 367.788 56.5C367.922 55.5667 367.988 54.5333 367.988 53.4V3.8H385.788V59.2C385.788 62.0667 385.388 64.5 384.588 66.5C383.788 68.5 382.622 70.1333 381.088 71.4C379.622 72.6667 377.822 73.6 375.688 74.2C373.622 74.7333 371.322 75 368.788 75H353.888V60.6ZM429.611 49.1L419.111 52.1C417.178 52.6333 415.444 53.4 413.911 54.4C412.378 55.3333 411.611 56.8667 411.611 59C411.611 61.1333 412.344 62.6667 413.811 63.6C415.278 64.5333 416.978 65 418.911 65C421.978 65 424.511 64 426.511 62C428.578 59.9333 429.611 56.8667 429.611 52.8V49.1ZM444.611 63.9C444.611 65.7667 444.678 67.6667 444.811 69.6C444.944 71.5333 445.344 73.3333 446.011 75H431.611C431.278 74.0667 431.044 73.1667 430.911 72.3C430.778 71.3667 430.678 70.4333 430.611 69.5H430.411C429.744 70.5667 428.811 71.5333 427.611 72.4C426.411 73.2 425.044 73.9 423.511 74.5C422.044 75.1 420.511 75.5667 418.911 75.9C417.311 76.2333 415.811 76.4 414.411 76.4C411.878 76.4 409.511 76.0333 407.311 75.3C405.178 74.6333 403.311 73.6333 401.711 72.3C400.111 70.9667 398.844 69.3333 397.911 67.4C397.044 65.4 396.611 63.1333 396.611 60.6C396.611 57.4 397.211 54.7 398.411 52.5C399.678 50.2333 401.478 48.3667 403.811 46.9C406.211 45.3667 409.078 44.1333 412.411 43.2C415.811 42.2667 419.644 41.5 423.911 40.9L429.611 40.1V35.7C429.611 33.7 428.911 32.2667 427.511 31.4C426.111 30.4667 424.344 30 422.211 30C419.678 30 417.778 30.5333 416.511 31.6C415.244 32.6 414.411 34.4333 414.011 37.1H399.011C399.144 33.3 400.011 30.3 401.611 28.1C403.278 25.8333 405.211 24.1333 407.411 23C409.678 21.8667 412.044 21.1667 414.511 20.9C416.978 20.5667 419.111 20.4 420.911 20.4C424.511 20.4 427.778 20.6333 430.711 21.1C433.644 21.5667 436.111 22.4 438.111 23.6C440.178 24.8 441.778 26.4 442.911 28.4C444.044 30.3333 444.611 32.8 444.611 35.8V63.9ZM458.988 21.8H474.588V26.5C475.588 25.3 476.722 24.3333 477.988 23.6C479.255 22.8 480.588 22.1667 481.988 21.7C483.388 21.2333 484.755 20.9 486.088 20.7C487.488 20.5 488.788 20.4 489.988 20.4C493.055 20.4 495.722 21 497.988 22.2C500.322 23.4 502.355 25.1667 504.088 27.5C506.622 24.9 509.322 23.0667 512.188 22C515.055 20.9333 518.055 20.4 521.188 20.4C522.455 20.4 524.022 20.5667 525.888 20.9C527.822 21.1667 529.622 21.8 531.288 22.8C533.022 23.8 534.488 25.2333 535.688 27.1C536.955 28.9 537.588 31.3333 537.588 34.4V75H521.988V43.9C521.988 40.1 521.388 37.3333 520.188 35.6C519.055 33.8667 516.988 33 513.988 33C511.388 33 509.422 33.8667 508.088 35.6C506.755 37.3333 506.088 39.5667 506.088 42.3V75H490.488V41.7C490.488 39.1 489.955 37 488.888 35.4C487.888 33.8 485.888 33 482.888 33C479.755 33 477.588 33.9 476.388 35.7C475.188 37.4333 474.588 39.5 474.588 41.9V75H458.988V21.8Z" fill="#A479FF"/>
</g>
<g filter="url(#filter1_d_200_196)">
<path d="M18.6299 2.5V57.5C18.6299 59.2154 19.6163 60.525 20.7158 61.3057C21.8221 62.091 23.2213 62.4999 24.6514 62.5C26.0816 62.5 27.4815 62.091 28.5879 61.3057C29.6874 60.5251 30.6738 59.2156 30.6738 57.5V17.5C30.6738 13.7016 32.8475 10.011 36.8496 7.16992C40.8446 4.33402 46.4882 2.50009 52.8252 2.5C59.1624 2.5 64.8066 4.33393 68.8018 7.16992C72.8039 10.011 74.9775 13.7016 74.9775 17.5V57.5C74.9776 59.2152 75.9631 60.525 77.0625 61.3057C78.1689 62.0912 79.5688 62.5 80.999 62.5C82.4293 62.5 83.8291 62.0911 84.9355 61.3057C86.035 60.5251 87.0215 59.2156 87.0215 57.5V2.5H103.151V57.5C103.151 61.2985 100.978 64.9891 96.9756 67.8301C92.9806 70.666 87.337 72.4999 81 72.5C74.6627 72.5 69.0185 70.6661 65.0234 67.8301C61.0213 64.9891 58.8477 61.2985 58.8477 57.5V17.5C58.8476 15.7842 57.8611 14.4746 56.7617 13.6943C55.6553 12.9091 54.2554 12.5 52.8252 12.5C51.3952 12.5001 49.9959 12.9091 48.8896 13.6943C47.7903 14.4747 46.8037 15.7844 46.8037 17.5V57.5C46.8037 61.2985 44.6301 64.9891 40.6279 67.8301C36.6328 70.666 30.9893 72.4999 24.6523 72.5C18.3152 72.5 12.671 70.6661 8.67578 67.8301C4.67363 64.9891 2.50001 61.2985 2.5 57.5V2.5H18.6299Z" fill="#A479FF" stroke="#A479FF" stroke-width="5"/>
</g>
<defs>
<filter id="filter0_d_200_196" x="140.199" y="3.80078" width="406.391" height="83.5977" filterUnits="userSpaceOnUse" color-interpolation-filters="sRGB">
<feFlood flood-opacity="0" result="BackgroundImageFix"/>
<feColorMatrix in="SourceAlpha" type="matrix" values="0 0 0 0 0 0 0 0 0 0 0 0 0 0 0 0 0 0 127 0" result="hardAlpha"/>
<feOffset dx="5" dy="7"/>
<feGaussianBlur stdDeviation="2"/>
<feComposite in2="hardAlpha" operator="out"/>
<feColorMatrix type="matrix" values="0 0 0 0 0 0 0 0 0 0 0 0 0 0 0 0 0 0 0.25 0"/>
<feBlend mode="normal" in2="BackgroundImageFix" result="effect1_dropShadow_200_196"/>
<feBlend mode="normal" in="SourceGraphic" in2="effect1_dropShadow_200_196" result="shape"/>
</filter>
<filter id="filter1_d_200_196" x="0" y="0" width="114.652" height="86" filterUnits="userSpaceOnUse" color-interpolation-filters="sRGB">
<feFlood flood-opacity="0" result="BackgroundImageFix"/>
<feColorMatrix in="SourceAlpha" type="matrix" values="0 0 0 0 0 0 0 0 0 0 0 0 0 0 0 0 0 0 127 0" result="hardAlpha"/>
<feOffset dx="5" dy="7"/>
<feGaussianBlur stdDeviation="2"/>
<feComposite in2="hardAlpha" operator="out"/>
<feColorMatrix type="matrix" values="0 0 0 0 0 0 0 0 0 0 0 0 0 0 0 0 0 0 0.25 0"/>
<feBlend mode="normal" in2="BackgroundImageFix" result="effect1_dropShadow_200_196"/>
<feBlend mode="normal" in="SourceGraphic" in2="effect1_dropShadow_200_196" result="shape"/>
</filter>
</defs>
</svg>
