<svg width="135" height="90" viewBox="0 0 135 90" fill="none" xmlns="http://www.w3.org/2000/svg">
<path d="M25.377 1.5V69C25.377 70.4828 26.2769 71.6438 27.3555 72.3662C28.4447 73.0958 29.8633 73.4999 31.3555 73.5C32.8477 73.5 34.2671 73.0958 35.3564 72.3662C36.435 71.6438 37.3349 70.4829 37.335 69V21C37.335 15.8663 40.4541 11.0278 45.8643 7.4043C51.2638 3.78808 58.8037 1.50005 67.1914 1.5C75.5792 1.5 83.119 3.7881 88.5186 7.4043C93.9289 11.0278 97.0478 15.8662 97.0479 21V69C97.0479 70.4827 97.9479 71.6438 99.0264 72.3662C100.116 73.0958 101.535 73.5 103.027 73.5C104.52 73.5 105.939 73.0958 107.028 72.3662C108.107 71.6438 109.007 70.4827 109.007 69V1.5H132.884V69C132.884 74.1339 129.765 78.9723 124.354 82.5957C118.955 86.2119 111.415 88.5 103.027 88.5C94.6396 88.5 87.0997 86.2119 81.7002 82.5957C76.29 78.9723 73.1709 74.1339 73.1709 69V21C73.1709 19.5171 72.2708 18.356 71.1924 17.6338C70.103 16.9043 68.6835 16.5 67.1914 16.5C65.6994 16.5001 64.2806 16.9043 63.1914 17.6338C62.1129 18.3561 61.2129 19.5171 61.2129 21V69C61.2129 74.1338 58.0938 78.9723 52.6836 82.5957C47.284 86.2119 39.744 88.5 31.3564 88.5C22.9688 88.5 15.4289 86.2119 10.0293 82.5957C4.61893 78.9723 1.50001 74.1339 1.5 69V1.5H25.377Z" stroke="#FEFDF7" stroke-width="3"/>
</svg>
